<?xml version="1.0" encoding="utf-8"?>
<!-- Generator: Adobe Illustrator 28.0.0, SVG Export Plug-In . SVG Version: 6.00 Build 0)  -->
<svg version="1.1" id="Layer_1" xmlns="http://www.w3.org/2000/svg" xmlns:xlink="http://www.w3.org/1999/xlink" x="0px" y="0px"
	 viewBox="0 0 512 512" style="enable-background:new 0 0 512 512;" xml:space="preserve">
<style type="text/css">
	.st0{fill:#2A7AB9;}
</style>
<g>
	<path class="st0" d="M274.8,231.3v-0.8c-0.1,0.2-0.3,0.6-0.6,0.8H274.8z"/>
	<path class="st0" d="M473.5-1H37.4C16.5-1-0.4,15.5-0.4,35.9v441.3c0,20.4,16.9,36.9,37.8,36.9h436.2c20.9,0,37.9-16.5,37.9-36.9
		V35.9C511.4,15.5,494.5-1,473.5-1z M154.7,430.2H77.4V197.6h77.3V430.2z M116.1,165.7h-0.5c-25.9,0-42.7-17.9-42.7-40.1
		c0-22.9,17.3-40.1,43.7-40.1c26.5,0,42.8,17.4,43.2,40.1C159.9,147.9,143,165.7,116.1,165.7z M433.5,430.2h-77.3V305.6
		c0-31.3-11.1-52.5-39.1-52.5c-21.4,0-34.1,14.3-39.7,28.3c-2,5-2.5,11.9-2.5,18.9v129.9h-77.3c0,0,1-210.8,0-232.6h77.3v32.9
		c10.2-15.8,28.7-38.4,69.7-38.4c50.8,0,88.9,33.2,88.9,104.8V430.2z"/>
</g>
</svg>
