<?xml version="1.0" encoding="UTF-8"?>
<svg id="Layer_1" data-name="Layer 1" xmlns="http://www.w3.org/2000/svg" viewBox="0 0 89.7 33.92">
  <defs>
    <style>
      .cls-1 {
        fill: #aba496;
      }

      .cls-1, .cls-2, .cls-3, .cls-4 {
        fill-rule: evenodd;
      }

      .cls-1, .cls-2, .cls-3, .cls-4, .cls-5, .cls-6 {
        stroke-width: 0px;
      }

      .cls-2, .cls-6 {
        fill: #fff;
      }

      .cls-3 {
        fill: #e5bf63;
      }

      .cls-4 {
        fill: #7cbacf;
      }

      .cls-5 {
        fill: #6d6652;
      }
    </style>
  </defs>
  <circle class="cls-6" cx="46.31" cy="7.65" r="6.88"/>
  <circle class="cls-6" cx="64.16" cy="7.65" r="6.88"/>
  <circle class="cls-6" cx="82.13" cy="7.65" r="6.88"/>
  <path class="cls-2" d="m38.72,7.72c0-1.64.53-3.16,1.42-4.4h0s.05-.07.07-.11h0s.05-.07.08-.11h0s.05-.07.08-.11h0s.05-.07.07-.1h.01s.05-.07.07-.1l.02-.02s.05-.06.07-.08l.02-.02s.04-.05.07-.07l.02-.03s.04-.05.06-.07l.03-.03s.04-.05.06-.07l.03-.03s.04-.04.07-.06l.03-.03s.04-.04.06-.06l.04-.03s.03-.04.05-.05c.02-.01.03-.03.05-.04l.05-.04s.04-.03.05-.05l.04-.04s.04-.03.06-.05l.04-.04s.05-.03.06-.05c.02-.01.04-.03.05-.04.02-.02.04-.03.05-.05.02-.01.03-.02.04-.03.02-.02.04-.03.07-.05l.03-.03s.05-.04.07-.05l.03-.02s.05-.04.08-.06l.03-.02s.05-.04.08-.06l.03-.02s.05-.04.09-.06h.02s.06-.05.09-.08h.02s.07-.05.1-.07h0s.08-.05.11-.07h0s.07-.05.11-.07h0s.07-.04.11-.07h0s.07-.04.12-.06h0s.07-.04.11-.06h0s.08-.04.12-.06h0c1.02-.5,2.17-.77,3.38-.76,1.21,0,2.36.3,3.37.8h.01s.07.04.11.06h0c.12.06.23.13.34.19h0c.15.09.3.18.44.28l.02.02s.06.04.09.06h.02s.06.05.09.08h.02s.06.05.09.08l.02.02s.05.04.08.06l.03.03s.05.04.07.06l.03.02s.05.04.07.06l.04.03s.05.04.07.06l.03.03s.04.04.06.06c.02.01.03.03.05.04l.05.06.04.03s.03.04.05.05l.04.04s.04.03.05.05c.02.02.03.03.04.05.02.01.03.03.04.04.02.02.04.03.05.05l.04.04s.04.04.05.06l.04.04s.04.04.05.06l.04.04s.04.04.05.06l.02.03s.04.04.06.07l.03.03s.04.05.06.07l.02.03s.04.05.06.08l.02.03s.04.05.06.08h.02s.04.08.06.11l.02.02s.04.06.06.09h.01s.04.07.06.11l.02.02c.09.15.18.29.27.44h0c.07.12.12.24.19.35h0s.04.07.05.11h0c.49,1.03.77,2.18.76,3.39,0,1.21-.3,2.36-.8,3.38v.02s-.04.06-.06.09v.03s-.04.06-.06.1h-.01c-.02.05-.04.08-.05.12v.02s-.04.06-.06.1l-.02.02s-.04.06-.05.09v.02s-.05.06-.07.1h0s-.04.08-.06.11v.02s-.05.05-.07.08l-.02.04s-.04.05-.05.08l-.02.03s-.04.05-.05.07l-.02.03s-.04.05-.05.07l-.03.04s-.03.04-.05.06l-.04.05s-.03.04-.05.05l-.04.05-.04.05s-.03.04-.05.05l-.04.05s-.03.03-.05.05l-.04.04s-.03.04-.06.06l-.03.04s-.04.04-.06.06l-.03.03s-.04.04-.06.06l-.03.03s-.04.04-.07.06l-.02.03s-.05.04-.07.07l-.02.03s-.05.04-.08.07l-.02.02s-.05.04-.07.07l-.03.03s-.05.04-.08.07h-.01s-.06.06-.09.08l-.02.02s-.05.04-.08.07h-.02s-.06.05-.09.08h-.02s-.06.06-.09.09h0s-.07.05-.1.08h0l-.21.15h0c-.3.19-.6.37-.93.53-1.03.49-2.17.77-3.39.76-1.21,0-2.36-.29-3.37-.8h0s-.07-.04-.12-.06h0c-.12-.06-.23-.12-.35-.19h0s-.08-.05-.11-.07h0s-.07-.04-.1-.07h0s-.07-.05-.1-.07h0s-.07-.05-.1-.07h-.02s-.06-.06-.08-.08l-.03-.02s-.05-.04-.08-.06l-.02-.02s-.06-.04-.08-.06l-.03-.02s-.05-.04-.08-.06l-.03-.03s-.04-.04-.07-.05l-.04-.03s-.04-.03-.06-.05l-.04-.04s-.04-.03-.06-.05l-.03-.03s-.04-.03-.06-.05l-.04-.03s-.04-.04-.06-.06l-.04-.03s-.04-.04-.05-.05c-.02-.02-.03-.03-.05-.04-.02-.02-.03-.03-.05-.05-.01-.02-.03-.03-.05-.05-.02-.01-.03-.03-.04-.04-.02-.02-.04-.04-.05-.05l-.04-.04s-.04-.04-.05-.06l-.04-.04s-.04-.04-.05-.06l-.03-.04s-.04-.04-.05-.06l-.03-.03s-.04-.04-.05-.07l-.03-.03s-.04-.05-.06-.07l-.02-.03s-.04-.05-.06-.08l-.02-.02s-.05-.06-.07-.09v-.02s-.05-.06-.08-.09l-.02-.02s-.04-.06-.06-.09v-.02s-.05-.06-.08-.1h0s-.05-.08-.07-.11h0s-.04-.07-.06-.11h0s-.05-.08-.07-.12h0c-.05-.08-.09-.16-.13-.23h0c-.61-1.11-.95-2.38-.94-3.74"/>
  <path class="cls-3" d="m43.57,7.77c.31.54.73,1.08,1.24,1.59.51.51,1.05.94,1.58,1.26.54-.32,1.08-.73,1.6-1.24.51-.51.93-1.05,1.26-1.58-.32-.54-.73-1.08-1.24-1.6-.51-.51-1.04-.94-1.58-1.26-.54.32-1.08.73-1.6,1.24-.51.51-.94,1.05-1.26,1.58"/>
  <path class="cls-3" d="m56.51,7.74c.02-1.64.53-3.16,1.42-4.4h0s.05-.08.07-.11h0s.05-.07.08-.11h0s.05-.07.08-.1h0s.06-.07.08-.1h0s.05-.07.07-.1l.02-.02s.05-.06.07-.08l.02-.02s.04-.05.06-.07l.02-.03s.05-.05.06-.07l.03-.02s.04-.05.07-.07l.03-.03s.04-.04.06-.06l.03-.03s.04-.04.06-.07l.04-.03s.03-.04.05-.05c.02-.01.03-.03.05-.05l.05-.04s.04-.03.05-.05l.05-.04s.04-.03.06-.05l.04-.03s.04-.03.06-.05c.02-.01.03-.02.05-.04.02-.02.04-.03.06-.05.01,0,.03-.02.04-.03.02-.02.04-.03.06-.05l.03-.03s.05-.04.08-.05l.03-.03s.05-.04.08-.06l.02-.02s.06-.04.08-.06l.03-.02s.06-.04.09-.06l.02-.02s.06-.04.09-.06h.01s.07-.05.11-.08h0s.07-.05.1-.07h0s.08-.05.11-.07h0s.07-.04.11-.07h0s.08-.04.12-.06h0s.08-.04.11-.06h0s.08-.04.11-.06h0c1.02-.5,2.17-.77,3.39-.76,1.21,0,2.35.29,3.37.8h0s.07.04.11.06h0c.12.06.23.12.35.19h0c.15.09.3.18.44.28h.02s.06.05.09.07h.02s.06.05.09.08h.02s.06.06.09.08h.02s.05.06.08.08l.04.02s.05.04.07.06l.02.02s.05.04.07.06l.04.03s.04.04.07.06l.03.03s.04.03.06.05c.02.01.03.03.05.04.02.02.04.03.05.05l.04.04s.04.04.05.05l.05.04s.03.03.05.05c.01.02.03.03.04.04.02.02.03.03.05.04.02.02.03.04.05.05l.04.04s.04.04.05.06l.04.04s.03.04.05.06l.04.04s.04.04.05.06l.03.03s.04.04.06.07l.03.03s.04.05.06.07l.02.03s.04.05.06.07l.02.04s.05.05.06.08l.02.02s.04.06.06.09l.02.02s.05.06.07.09v.02s.05.06.07.09l.02.02c.09.14.19.29.27.44h0c.07.12.13.23.19.35h0s.04.08.05.11h0c.49,1.03.77,2.18.76,3.39,0,1.21-.29,2.36-.8,3.38v.02s-.04.06-.05.09v.03s-.05.07-.07.1v.02s-.05.07-.07.1v.02s-.04.06-.06.09v.02s-.05.06-.07.09v.02s-.05.07-.07.1v.02s-.05.06-.07.1v.02s-.05.05-.07.08l-.02.03s-.03.05-.05.08l-.02.03s-.04.05-.05.07l-.03.03s-.03.05-.05.08l-.03.04s-.03.04-.05.06l-.04.05s-.03.04-.04.05l-.04.05-.04.05s-.03.04-.04.05l-.04.05s-.04.03-.05.05l-.04.04s-.03.04-.05.06l-.03.04s-.04.04-.05.06l-.04.04s-.04.04-.05.06l-.04.03s-.04.04-.06.06l-.02.02s-.05.05-.07.07l-.03.03s-.05.04-.07.07l-.02.02s-.05.04-.07.07l-.03.03s-.05.04-.08.07h-.02s-.05.06-.08.08l-.02.02s-.05.05-.08.07h-.01s-.06.05-.09.08l-.02.02s-.06.05-.09.07h0s-.07.05-.1.08h0c-.07.05-.14.1-.22.15h0c-.3.2-.6.37-.93.53-1.02.49-2.17.77-3.38.76-1.21,0-2.36-.29-3.38-.8h0s-.07-.04-.11-.06h0c-.12-.06-.23-.13-.35-.19h0s-.07-.05-.12-.07h0s-.07-.04-.1-.07h0s-.07-.05-.1-.07h-.01s-.06-.05-.09-.07h-.02s-.06-.05-.09-.07l-.02-.02s-.05-.04-.08-.06h-.02s-.05-.05-.08-.08l-.03-.02s-.05-.04-.07-.06l-.03-.02s-.04-.04-.07-.05l-.04-.03s-.04-.03-.06-.05l-.04-.04s-.04-.03-.06-.05l-.04-.03s-.04-.04-.06-.05l-.04-.04s-.04-.04-.06-.05l-.03-.03s-.04-.03-.05-.05c-.02-.02-.03-.03-.05-.05-.02-.01-.03-.03-.05-.04-.01-.02-.03-.04-.05-.05-.02-.01-.03-.03-.04-.04-.02-.02-.04-.03-.05-.05l-.04-.04s-.04-.04-.05-.06l-.04-.04s-.03-.04-.05-.06l-.03-.04s-.04-.04-.05-.06l-.03-.03s-.04-.05-.06-.07l-.02-.03s-.04-.05-.06-.08l-.02-.03s-.05-.05-.06-.08l-.02-.02s-.04-.06-.07-.09h0s-.04-.07-.06-.1l-.02-.02s-.04-.06-.06-.09v-.02s-.05-.06-.08-.1h0s-.04-.08-.07-.11h0s-.05-.07-.06-.11h0s-.05-.08-.07-.12h0c-.04-.08-.09-.16-.13-.23h0c-.61-1.11-.95-2.39-.94-3.74m3.4-4.32c-.34,1.3-.53,2.77-.55,4.34,0,1.56.16,3.04.49,4.34,1.3.34,2.78.54,4.34.55,1.56,0,3.03-.17,4.34-.49.34-1.3.54-2.78.55-4.34,0-1.56-.17-3.04-.49-4.34-1.3-.34-2.77-.54-4.34-.54-1.56,0-3.04.17-4.34.49"/>
  <path class="cls-3" d="m79.45,5.15c-.2.76-.31,1.63-.32,2.55,0,.92.1,1.78.29,2.55.76.19,1.63.32,2.55.32.91,0,1.78-.1,2.55-.29.2-.77.31-1.63.32-2.55,0-.91-.1-1.78-.29-2.55-.76-.2-1.63-.31-2.55-.32-.92,0-1.78.1-2.55.29"/>
  <path class="cls-1" d="m76.57,2.23c1.17-1.15,2.61-1.86,4.11-2.11h0s.09-.01.12-.02h0s.09-.02.13-.02h0s.09-.01.13-.02h0s.08,0,.12-.02h.02s.07,0,.11-.01h.02s.07,0,.11-.01h.03s.06,0,.1,0h.04s.06,0,.09,0h.04s.06,0,.1,0h.03s.07,0,.09,0h.05s.05,0,.08,0h.13s.04,0,.06,0h.06s.05,0,.07,0h.06s.05,0,.08.01h.05s.05,0,.08.01c.02,0,.04,0,.06,0,.02,0,.05,0,.07,0,.02,0,.04,0,.05,0,.02,0,.05,0,.08.01h.05s.06.02.09.02h.04s.06.02.09.02h.04s.07.02.09.02h.03s.07.02.1.03h.03s.07.02.11.03h.02s.08.02.12.03h0s.08.02.12.04h.01s.08.02.12.03h0s.08.03.12.04h0l.12.04h0s.08.03.12.04h0s.08.03.12.04h0c1.07.38,2.08.99,2.93,1.86.86.87,1.46,1.88,1.82,2.95h0s.02.08.03.12h0c.04.13.08.26.11.39h0c.04.17.08.34.11.51v.02s.02.07.02.11v.02s.02.07.02.11v.02s.02.07.02.11v.02s0,.07.02.1v.04s.02.06.02.1v.04s0,.06,0,.09v.04s0,.06.01.09v.04s0,.05,0,.08c0,.02,0,.04,0,.06v.07s0,.05,0,.05c0,.03,0,.05,0,.08v.39s0,.05,0,.08v.05s0,.05,0,.08v.06s0,.05,0,.08v.04s-.01.06-.02.09v.04s0,.06-.01.09v.04s-.01.06-.02.09v.04s-.01.07-.02.1v.02s-.02.07-.02.11v.02s-.01.08-.02.11v.02s-.02.07-.02.11v.02c-.04.17-.08.34-.13.5h0c-.03.13-.07.26-.11.38h0s-.03.08-.04.12h0c-.38,1.08-1,2.09-1.86,2.94-.86.85-1.88,1.46-2.95,1.82h-.02s-.06.03-.09.04h-.03s-.07.03-.1.04h-.02s-.08.03-.11.04h-.01s-.07.03-.11.04h-.02s-.07.02-.11.03h-.02s-.07.02-.11.03h-.02s-.08.02-.12.03h-.02s-.07.01-.1.02h-.04s-.06.02-.09.03h-.04s-.06.02-.09.02h-.04s-.06.02-.09.02h-.04s-.05.01-.08.02h-.06s-.05.01-.07.02h-.06s-.06.01-.06.01c-.02,0-.05,0-.07,0h-.06s-.05.01-.07.01h-.05s-.05,0-.09,0h-.05s-.05,0-.08,0h-.05s-.05,0-.08,0h-.18s-.06,0-.09,0h-.04s-.07,0-.1,0h-.03s-.06,0-.1,0h-.04s-.07,0-.1-.01h-.02s-.08,0-.11,0h-.03s-.07-.01-.11-.01h-.02s-.08-.01-.11-.02h-.02s-.08-.01-.12-.02h0s-.09-.02-.13-.02h0c-.09-.02-.17-.03-.26-.05h0c-.35-.07-.69-.17-1.03-.28h0c-1.07-.38-2.07-.99-2.93-1.86-.85-.86-1.46-1.87-1.82-2.95h0s-.03-.08-.04-.12h0c-.05-.13-.08-.26-.11-.39-.01-.04-.02-.09-.03-.13h0s-.02-.08-.03-.13h0s-.02-.08-.02-.13h0s-.02-.08-.02-.12v-.02s-.02-.07-.02-.11v-.03s-.02-.07-.02-.11v-.03s-.02-.07-.02-.1v-.03s-.02-.06-.02-.09v-.04s0-.06-.01-.09v-.05s0-.05-.01-.08v-.06s0-.05-.01-.08v-.05s0-.05,0-.08v-.05s0-.05,0-.08v-.05s0-.05,0-.08v-.39s0-.05,0-.08v-.05s0-.05,0-.08v-.05s0-.06,0-.08v-.05s0-.06.01-.09v-.04s.01-.07.02-.1v-.03s.01-.07.02-.11v-.02s.01-.08.02-.11v-.02s.02-.07.02-.11v-.02s.01-.08.02-.11v-.02s.02-.08.02-.11h0c0-.05.02-.1.02-.13h0s.02-.09.03-.13h0s.02-.09.03-.13h0c.02-.09.05-.18.07-.26.36-1.21,1.02-2.36,1.98-3.31m5.46-.65c-1.16.68-2.34,1.59-3.45,2.68-1.11,1.1-2.03,2.27-2.72,3.42.68,1.16,1.58,2.34,2.68,3.45,1.1,1.11,2.27,2.03,3.42,2.73,1.16-.69,2.34-1.59,3.45-2.68,1.11-1.1,2.03-2.26,2.72-3.42-.68-1.16-1.58-2.34-2.68-3.45-1.1-1.11-2.27-2.03-3.42-2.72"/>
  <path class="cls-4" d="m61.72,5.2c-.2.76-.31,1.63-.32,2.55,0,.92.1,1.78.29,2.55.77.2,1.64.32,2.55.32.92,0,1.79-.1,2.55-.29.2-.76.31-1.63.32-2.55,0-.91-.1-1.78-.29-2.55-.77-.2-1.63-.31-2.55-.32-.92,0-1.78.1-2.55.29"/>
  <path class="cls-4" d="m38.72,7.72c0-1.64.53-3.16,1.42-4.4h0s.05-.07.07-.11h0s.05-.07.08-.11h0s.05-.07.08-.11h0s.05-.07.07-.1h.01s.05-.07.07-.1l.02-.02s.05-.06.07-.08l.02-.02s.04-.05.07-.07l.02-.03s.04-.05.06-.07l.03-.03s.04-.05.06-.07l.03-.03s.04-.04.07-.06l.03-.03s.04-.04.06-.06l.04-.03s.03-.04.05-.05c.02-.01.03-.03.05-.04l.05-.04s.04-.03.05-.05l.04-.04s.04-.03.06-.05l.04-.04s.05-.03.06-.05c.02-.01.04-.03.05-.04.02-.02.04-.03.05-.05.02-.01.03-.02.04-.03.02-.02.04-.03.07-.05l.03-.03s.05-.04.07-.05l.03-.02s.05-.04.08-.06l.03-.02s.05-.04.08-.06l.03-.02s.05-.04.09-.06h.02s.06-.05.09-.08h.02s.07-.05.1-.07h0s.08-.05.11-.07h0s.07-.05.11-.07h0s.07-.04.11-.07h0s.07-.04.12-.06h0s.07-.04.11-.06h0s.08-.04.12-.06h0c1.02-.5,2.17-.77,3.38-.76,1.21,0,2.36.3,3.37.8h.01s.07.04.11.06h0c.12.06.23.13.34.19h0c.15.09.3.18.44.28l.02.02s.06.04.09.06h.02s.06.05.09.08h.02s.06.05.09.08l.02.02s.05.04.08.06l.03.03s.05.04.07.06l.03.02s.05.04.07.06l.04.03s.05.04.07.06l.03.03s.04.04.06.06c.02.01.03.03.05.04l.05.06.04.03s.03.04.05.05l.04.04s.04.03.05.05c.02.02.03.03.04.05.02.01.03.03.04.04.02.02.04.03.05.05l.04.04s.04.04.05.06l.04.04s.04.04.05.06l.04.04s.04.04.05.06l.02.03s.04.04.06.07l.03.03s.04.05.06.07l.02.03s.04.05.06.08l.02.03s.04.05.06.08h.02s.04.08.06.11l.02.02s.04.06.06.09h.01s.04.07.06.11l.02.02c.09.15.18.29.27.44h0c.07.12.12.24.19.35h0s.04.07.05.11h0c.49,1.03.77,2.18.76,3.39,0,1.21-.3,2.36-.8,3.38v.02s-.04.06-.06.09v.03s-.04.06-.06.1h-.01c-.02.05-.04.08-.05.12v.02s-.04.06-.06.1l-.02.02s-.04.06-.05.09v.02s-.05.06-.07.1h0s-.04.08-.06.11v.02s-.05.05-.07.08l-.02.04s-.04.05-.05.08l-.02.03s-.04.05-.05.07l-.02.03s-.04.05-.05.07l-.03.04s-.03.04-.05.06l-.04.05s-.03.04-.05.05l-.04.05-.04.05s-.03.04-.05.05l-.04.05s-.03.03-.05.05l-.04.04s-.03.04-.06.06l-.03.04s-.04.04-.06.06l-.03.03s-.04.04-.06.06l-.03.03s-.04.04-.07.06l-.02.03s-.05.04-.07.07l-.02.03s-.05.04-.08.07l-.02.02s-.05.04-.07.07l-.03.03s-.05.04-.08.07h-.01s-.06.06-.09.08l-.02.02s-.05.04-.08.07h-.02s-.06.05-.09.08h-.02s-.06.06-.09.09h0s-.07.05-.1.08h0l-.21.15h0c-.3.19-.6.37-.93.53-1.03.49-2.17.77-3.39.76-1.21,0-2.36-.29-3.37-.8h0s-.07-.04-.12-.06h0c-.12-.06-.23-.12-.35-.19h0s-.08-.05-.11-.07h0s-.07-.04-.1-.07h0s-.07-.05-.1-.07h0s-.07-.05-.1-.07h-.02s-.06-.06-.08-.08l-.03-.02s-.05-.04-.08-.06l-.02-.02s-.06-.04-.08-.06l-.03-.02s-.05-.04-.08-.06l-.03-.03s-.04-.04-.07-.05l-.04-.03s-.04-.03-.06-.05l-.04-.04s-.04-.03-.06-.05l-.03-.03s-.04-.03-.06-.05l-.04-.03s-.04-.04-.06-.06l-.04-.03s-.04-.04-.05-.05c-.02-.02-.03-.03-.05-.04-.02-.02-.03-.03-.05-.05-.01-.02-.03-.03-.05-.05-.02-.01-.03-.03-.04-.04-.02-.02-.04-.04-.05-.05l-.04-.04s-.04-.04-.05-.06l-.04-.04s-.04-.04-.05-.06l-.03-.04s-.04-.04-.05-.06l-.03-.03s-.04-.04-.05-.07l-.03-.03s-.04-.05-.06-.07l-.02-.03s-.04-.05-.06-.08l-.02-.02s-.05-.06-.07-.09v-.02s-.05-.06-.08-.09l-.02-.02s-.04-.06-.06-.09v-.02s-.05-.06-.08-.1h0s-.05-.08-.07-.11h0s-.04-.07-.06-.11h0s-.05-.08-.07-.12h0c-.05-.08-.09-.16-.13-.23h0c-.61-1.11-.95-2.38-.94-3.74m3.4-4.32c-.34,1.3-.54,2.77-.55,4.34,0,1.56.17,3.04.49,4.34,1.3.34,2.78.54,4.34.54,1.56,0,3.04-.17,4.34-.49.34-1.3.53-2.78.55-4.34,0-1.56-.17-3.03-.49-4.34-1.3-.34-2.77-.54-4.34-.54-1.56,0-3.04.17-4.34.49"/>
  <g>
    <path class="cls-5" d="m7.26,11.91h.33c-.05,1.01-.55,1.51-1.48,1.51-.4,0-.72-.11-.95-.32-.23-.21-.38-.53-.45-.94-.59.42-1.12.73-1.61.94-.49.21-.92.32-1.3.32-.49,0-.91-.14-1.26-.42-.35-.28-.53-.66-.53-1.12,0-.61.3-1.13.89-1.59.59-.45,1.41-.89,2.45-1.32l1.37-.56v-.35c0-.5-.03-.86-.1-1.09s-.23-.42-.5-.6c-.27-.18-.63-.26-1.07-.26-.88,0-1.37.29-1.47.88-.09.6-.34.9-.74.9-.36,0-.54-.17-.54-.51s.24-.7.71-1.08c.48-.39,1.22-.58,2.22-.58.75,0,1.33.12,1.74.35.41.24.68.5.82.8.13.3.2.76.2,1.38v2.92c0,.68.04,1.12.11,1.31.07.19.22.29.46.29.39,0,.63-.29.72-.86Zm-2.56-3.09l-.96.39c-1.52.62-2.28,1.39-2.28,2.33,0,.37.1.67.29.9s.45.34.76.34c.28,0,.6-.09.96-.27s.77-.46,1.23-.82v-2.86Z"/>
    <path class="cls-5" d="m12.11,5.71h.09c.17.39.26.9.26,1.52.39-.51.82-.89,1.27-1.14.46-.25.95-.38,1.47-.38.59,0,1.08.14,1.45.41.37.27.63.68.78,1.22.45-.54.91-.95,1.38-1.22.47-.27.95-.41,1.44-.41.56,0,1.03.13,1.42.39.39.26.62.55.71.88.08.33.12.86.12,1.6v2.17c0,.84.02,1.35.05,1.53.03.18.13.32.28.41s.45.13.87.13v.41h-3.61v-.41c.38,0,.65-.04.81-.13.16-.09.25-.21.29-.39s.05-.69.05-1.56v-2.41c0-.49-.03-.86-.08-1.1-.06-.25-.2-.46-.44-.64-.24-.18-.54-.26-.92-.26s-.77.13-1.15.39c-.39.26-.77.65-1.16,1.17v2.85c0,.77.01,1.25.03,1.45.02.2.1.35.25.46.14.11.4.16.77.16v.41h-3.49v-.41c.39,0,.67-.04.82-.12.16-.08.25-.21.29-.38.04-.17.06-.69.06-1.57v-2c0-.64-.03-1.1-.07-1.38-.05-.29-.2-.53-.45-.73-.25-.2-.57-.3-.94-.3s-.74.12-1.12.35c-.38.24-.77.59-1.16,1.06v3.01c0,.79.01,1.29.04,1.48.02.19.11.34.26.44.15.1.43.15.82.15v.41h-3.54v-.41c.39,0,.66-.04.82-.13.16-.09.25-.21.29-.38s.05-.69.05-1.56v-2.16c0-.82-.01-1.33-.04-1.51-.03-.19-.12-.32-.27-.42-.16-.09-.44-.14-.84-.14v-.41c.83-.08,1.53-.21,2.07-.4Z"/>
    <path class="cls-5" d="m30.22,11.86l1.68-4.01c.24-.59.36-.91.36-.98,0-.29-.33-.45-.98-.46v-.41h2.54v.41c-.39.02-.68.12-.86.31-.18.19-.41.61-.68,1.27l-3.22,7.77c-.31.74-.58,1.25-.81,1.51-.24.27-.49.4-.78.4-.38,0-.57-.17-.57-.52,0-.4.31-.74.92-1.01.36-.16.6-.29.72-.41.12-.11.24-.31.36-.61l.69-1.72-2.72-5.82c-.24-.51-.44-.84-.6-.97s-.43-.2-.81-.2v-.41h3.32v.41c-.58.02-.87.14-.87.36,0,.09.11.38.34.86l1.98,4.23Z"/>
    <path class="cls-5" d="m.04,33.86v-2.37h.34c.4,1.37,1.11,2.06,2.14,2.06.45,0,.78-.14,1-.41s.33-.57.33-.89c0-.38-.12-.68-.35-.93-.24-.24-.71-.53-1.4-.87-.73-.36-1.25-.71-1.57-1.06-.32-.34-.48-.76-.48-1.26s.17-.93.51-1.36c.34-.43.82-.65,1.44-.65s1.15.26,1.56.77c.09-.09.2-.3.34-.64h.33v2.23h-.33c-.12-.53-.35-1-.68-1.38-.34-.39-.74-.58-1.2-.58-.35,0-.64.11-.86.33-.22.22-.33.47-.33.76,0,.32.12.59.36.82.24.23.69.5,1.35.8,1,.45,1.61.89,1.83,1.32.22.44.34.85.34,1.25,0,.63-.21,1.14-.62,1.54-.41.39-.94.59-1.57.59-.66,0-1.26-.27-1.77-.82-.16.18-.29.43-.39.76H.04Z"/>
    <path class="cls-5" d="m14.35,28.85h-5.04c-.02.35-.04.61-.04.78,0,1.27.2,2.22.6,2.86.4.64.99.96,1.78.96,1.07,0,1.83-.48,2.28-1.44h.42c-.19.6-.56,1.07-1.12,1.41-.56.34-1.17.51-1.83.51-.61,0-1.19-.15-1.73-.46-.54-.31-.99-.75-1.34-1.31-.35-.56-.52-1.25-.52-2.06,0-1.14.34-2.09,1.01-2.85.67-.76,1.51-1.13,2.51-1.13.95,0,1.68.29,2.2.86.52.58.79,1.2.82,1.87Zm-1.54-.35c.02-.14.03-.26.03-.36,0-.52-.15-.92-.45-1.2-.3-.29-.67-.43-1.12-.43-1.07,0-1.71.66-1.91,1.99h3.46Z"/>
    <path class="cls-5" d="m19.33,26.11h.24c.14.36.21.86.23,1.49.42-.5.87-.87,1.33-1.12.46-.25.95-.37,1.46-.37.58,0,1.05.12,1.42.36.37.24.6.54.71.89s.16.86.16,1.53v2.26c0,.84.01,1.34.04,1.53.03.18.12.32.28.41.16.09.44.14.86.14v.41h-3.7v-.41h.17c.42,0,.7-.06.83-.19.13-.12.2-.27.22-.43s.03-.65.03-1.46v-2.33c0-.57-.03-.98-.08-1.22-.06-.24-.21-.46-.45-.65-.24-.19-.55-.28-.93-.28-.43,0-.84.13-1.23.38-.39.26-.76.64-1.11,1.15v2.95c0,.84.02,1.34.05,1.53.03.18.13.32.28.41.16.09.45.14.87.14v.41h-3.65v-.41c.41,0,.69-.04.85-.12.16-.08.26-.21.3-.37.04-.17.06-.69.06-1.57v-2.15c0-.84-.02-1.35-.05-1.53-.03-.18-.13-.31-.28-.41s-.45-.14-.87-.14v-.41c.65-.07,1.31-.21,1.98-.41Z"/>
    <path class="cls-5" d="m32.64,26.4v.41h-1.51v4.34c0,.77.01,1.26.03,1.46.02.2.1.35.25.46.15.11.41.16.79.16h.38v.41h-3.91v-.41c.41,0,.69-.04.84-.12.16-.08.25-.21.29-.37.04-.17.06-.69.06-1.57v-4.34h-1.35v-.41h1.35v-.65c0-.73.03-1.29.09-1.69.06-.4.22-.81.5-1.24.27-.43.62-.75,1.03-.98.41-.23.91-.34,1.48-.34.69,0,1.25.14,1.67.43.42.29.63.58.63.88,0,.17-.06.31-.18.42-.12.11-.26.17-.41.17-.31,0-.6-.24-.86-.72-.29-.53-.66-.79-1.12-.79-.37,0-.7.13-.97.4s-.45.6-.5,1c-.05.4-.08,1.26-.08,2.58v.55h1.51Z"/>
    <path class="cls-5" d="m39.91,26.81h-2.18v4.37c0,.67.03,1.12.09,1.35.06.23.18.42.37.56s.4.21.61.21c.42,0,.79-.24,1.1-.72l.28.17c-.18.39-.45.68-.81.88-.36.2-.72.3-1.08.3-.42,0-.8-.13-1.12-.38s-.52-.54-.6-.88c-.08-.33-.12-.92-.12-1.76v-4.09h-1.05v-.41c.48-.01.91-.21,1.3-.61.38-.39.63-.95.73-1.66h.28v2.27h2.18v.41Z"/>
    <path class="cls-5" d="m44.8,21.5v9.65c0,.77,0,1.26.03,1.46s.1.35.25.46.41.16.79.16h.21v.41h-3.86v-.41h.25c.35,0,.6-.05.75-.15.15-.1.24-.23.27-.41.03-.18.04-.68.04-1.52v-7.15c0-.76-.07-1.24-.2-1.43-.14-.2-.46-.3-.99-.3v-.41c.36,0,.78-.04,1.27-.12s.82-.16,1-.25h.19Z"/>
    <path class="cls-5" d="m55.38,28.85h-5.04c-.02.35-.04.61-.04.78,0,1.27.2,2.22.6,2.86.4.64.99.96,1.78.96,1.07,0,1.83-.48,2.28-1.44h.42c-.19.6-.56,1.07-1.12,1.41-.56.34-1.17.51-1.83.51-.61,0-1.19-.15-1.73-.46-.54-.31-.99-.75-1.34-1.31-.35-.56-.52-1.25-.52-2.06,0-1.14.34-2.09,1.01-2.85.67-.76,1.51-1.13,2.51-1.13.95,0,1.68.29,2.2.86s.79,1.2.82,1.87Zm-1.54-.35c.02-.14.03-.26.03-.36,0-.52-.15-.92-.45-1.2-.3-.29-.67-.43-1.12-.43-1.07,0-1.71.66-1.91,1.99h3.46Z"/>
    <path class="cls-5" d="m59.61,33.92h-.34v-9.67c0-.71-.02-1.16-.06-1.37s-.14-.36-.29-.46c-.16-.1-.43-.15-.82-.15v-.41c.35,0,.76-.04,1.25-.12s.82-.16,1-.25h.19v5.72c.41-.37.83-.65,1.25-.83s.85-.27,1.29-.27c1.04,0,1.89.36,2.56,1.08s1,1.65,1,2.77-.34,2.07-1.02,2.82c-.68.75-1.57,1.13-2.66,1.13-.54,0-1-.11-1.41-.34-.4-.22-.74-.56-1.01-1-.38.38-.69.83-.93,1.33Zm.93-6.18v2.83c0,.73.05,1.25.15,1.57s.33.63.7.92c.37.29.8.44,1.3.44.76,0,1.36-.31,1.81-.94s.67-1.52.67-2.69c0-1.08-.21-1.9-.63-2.46-.42-.56-.98-.84-1.68-.84-.4,0-.79.1-1.18.29-.39.19-.77.48-1.14.87Z"/>
    <path class="cls-5" d="m76.31,28.85h-5.04c-.02.35-.04.61-.04.78,0,1.27.2,2.22.6,2.86.4.64.99.96,1.78.96,1.07,0,1.83-.48,2.28-1.44h.42c-.19.6-.56,1.07-1.12,1.41-.56.34-1.17.51-1.83.51-.61,0-1.19-.15-1.73-.46-.54-.31-.99-.75-1.34-1.31-.35-.56-.52-1.25-.52-2.06,0-1.14.33-2.09,1.01-2.85.67-.76,1.51-1.13,2.51-1.13.95,0,1.68.29,2.2.86s.79,1.2.82,1.87Zm-1.54-.35c.02-.14.03-.26.03-.36,0-.52-.15-.92-.45-1.2-.3-.29-.67-.43-1.12-.43-1.07,0-1.71.66-1.91,1.99h3.46Z"/>
    <path class="cls-5" d="m81.29,26.11h.24c.14.36.21.86.23,1.49.42-.5.87-.87,1.33-1.12.46-.25.95-.37,1.46-.37.58,0,1.05.12,1.42.36.37.24.6.54.71.89.11.35.16.86.16,1.53v2.26c0,.84.01,1.34.04,1.53s.12.32.28.41c.16.09.44.14.86.14v.41h-3.7v-.41h.17c.42,0,.7-.06.83-.19.13-.12.2-.27.22-.43.02-.16.03-.65.03-1.46v-2.33c0-.57-.03-.98-.08-1.22-.06-.24-.21-.46-.45-.65-.24-.19-.55-.28-.93-.28-.43,0-.84.13-1.23.38-.39.26-.76.64-1.11,1.15v2.95c0,.84.02,1.34.05,1.53s.13.32.28.41c.16.09.45.14.87.14v.41h-3.65v-.41c.41,0,.69-.04.85-.12.16-.08.26-.21.3-.37.04-.17.06-.69.06-1.57v-2.15c0-.84-.02-1.35-.05-1.53s-.13-.31-.28-.41-.45-.14-.87-.14v-.41c.65-.07,1.31-.21,1.98-.41Z"/>
  </g>
</svg>