<?xml version="1.0" encoding="utf-8"?>
<!-- Generator: Adobe Illustrator 28.0.0, SVG Export Plug-In . SVG Version: 6.00 Build 0)  -->
                            <svg version="1.1" id="sails" xmlns="http://www.w3.org/2000/svg" xmlns:xlink="http://www.w3.org/1999/xlink" x="0px" y="0px"
                            viewBox="0 0 505 242.6" style="enable-background:new 0 0 505 242.6;" xml:space="preserve">
                       <style type="text/css">
                           .Arched_x0020_Green{fill:url(#SVGID_1_);stroke:#FFFFFF;stroke-width:0.25;stroke-miterlimit:1;}
                           .st0{fill-rule:evenodd;clip-rule:evenodd;fill:#00BCE4;}
                           .st1{fill-rule:evenodd;clip-rule:evenodd;fill:#EF3E42;}
                           .st2{fill-rule:evenodd;clip-rule:evenodd;fill:#FFD07B;}
                           .st3{fill-rule:evenodd;clip-rule:evenodd;fill:#003F5F;}
                           .st4{fill-rule:evenodd;clip-rule:evenodd;fill:#7AC143;}
                       </style>
                       <linearGradient id="SVGID_1_" gradientUnits="userSpaceOnUse" x1="-143.5" y1="506" x2="-142.7929" y2="505.2929">
                           <stop  offset="0" style="stop-color:#20AC4B"/>
                           <stop  offset="0.9831" style="stop-color:#19361A"/>
                       </linearGradient>
                       <polygon class="st0" points="-0.7,133.8 503.9,98.1 503.9,242.4 0.1,242.4 "/>
                       <g class="boat1-red">
                           <path class="st1" d="M150.6,115.9c-1.8,2.3,28.9-6,48.8-1.2c1,0.2,7.5-77,7.5-77S167.5,94.2,150.6,115.9z"/>
                           <path class="st1" d="M210.9,29.9l-5.9,84.7c0,0,36.8-2.9,42.4-1.1C252.9,115.2,210.9,29.9,210.9,29.9z"/>
                           <path class="st2" d="M208.2,29.8c0,0-8.5-1.5-13.5,3.6c-2.5,2.6-5.5,3.3-7.8,2.9c-2.3-0.4-0.5,3.3,2.8,3.6c6.8,0.6,12.7-5,17.6-3.7
                               C207.5,36.2,208.2,29.8,208.2,29.8z"/>
                           <polygon class="st3" points="145.3,119 153.3,138.8 241.4,134.6 247.3,119.7 	"/>
                       </g>
                       <g class="boat2">
                           <path class="st2" d="M345,122.6c-1.8,2.3,28.9-6,48.8-1.2c1,0.2,7.5-77,7.5-77S361.9,100.8,345,122.6z"/>
                           <path class="st2" d="M405.3,36.5l-5.9,84.7c0,0,36.8-2.9,42.4-1.1C447.3,121.8,405.3,36.5,405.3,36.5z"/>
                           <path class="st1" d="M402.7,36.5c0,0-8.5-1.5-13.5,3.6c-2.5,2.6-5.5,3.3-7.8,2.9c-2.3-0.4-0.5,3.3,2.8,3.6c6.8,0.6,12.7-5,17.6-3.7
                               C401.9,42.9,402.7,36.5,402.7,36.5z"/>
                           <polygon class="st3" points="339.7,125.6 347.7,145.4 435.8,141.3 441.7,126.3 	"/>
                       </g>
                       <g class="boat3-green">
                           <path class="st4" d="M311.6,151.2c1.6,2-25.4-5.2-42.9-1.1c-0.9,0.2-6.5-67.5-6.5-67.5S296.7,132.2,311.6,151.2z"/>
                           <path class="st4" d="M258.7,75.7l5.2,74.3c0,0-32.3-2.5-37.2-1C221.8,150.6,258.7,75.7,258.7,75.7z"/>
                           <path class="st2" d="M261,75.7c0,0,7.4-1.4,11.9,3.2c2.2,2.2,4.8,2.9,6.8,2.5c2-0.4,0.5,2.9-2.5,3.2c-6,0.6-11.2-4.4-15.4-3.3
                               C261.6,81.3,261,75.7,261,75.7z"/>
                           <polygon class="st3" points="316.2,153.9 309.2,171.3 231.9,167.7 226.7,154.5 	"/>
                       </g>
                       <g class="boat4">
                           <path class="st2" d="M170.8,181.8c2,2.6-32.4-6.7-54.7-1.4c-1.1,0.3-8.4-86.2-8.4-86.2S151.8,157.5,170.8,181.8z"/>
                           <path class="st2" d="M103.2,85.5l6.7,94.9c0,0-41.3-3.2-47.5-1.3C56.2,181,103.2,85.5,103.2,85.5z"/>
                           <path class="st1" d="M106.2,85.4c0,0,9.5-1.7,15.2,4.1c2.8,2.9,6.1,3.7,8.7,3.2c2.6-0.5,0.6,3.7-3.2,4c-7.6,0.7-14.3-5.6-19.7-4.2
                               C107,92.6,106.2,85.4,106.2,85.4z"/>
                           <polygon class="st3" points="176.7,185.2 167.7,207.4 69,202.8 62.4,186.1 	"/>
                       </g>
                            </svg>
